PathFileType	4	(X/Y/Z)	C:/Users/beibeiliu/ov580/test_trc/User3\sequence.10_training_dense_right.trc
DataRate	CameraRate	NumFrames	NumMarkers	Units	OrigDataRate	OrigDataStartFrame	OrigNumFrames
120	120	16	19	mm	120	78	155
Frame#	Time	ThumbCMC			ThumbMCP			ThumbIP			ThumbTip			IndexMCP			IndexPIP			IndexTip			MiddleMCP			MiddlePIP			MiddleTip			RingMCP			RingPIP			RingTip			PinkyMCP			PinkyPIP			PinkyTip			BackHand1			BackHand2			BackHand3	
		X0	Y0	Z0	X1	Y1	Z1	X2	Y2	Z2	X3	Y3	Z3	X4	Y4	Z4	X5	Y5	Z5	X6	Y6	Z6	X7	Y7	Z7	X8	Y8	Z8	X9	Y9	Z9	X10	Y10	Z10	X11	Y11	Z11	X12	Y12	Z12	X13	Y13	Z13	X14	Y14	Z14	X15	Y15	Z15	X16	Y16	Z16	X17	Y17	Z17	X18	Y18	Z18	
77	0.641667	179.504	67.7976	-12.5963	180.095	62.1425	-48.1588	195.717	55.3924	-74.7111	219.711	42.1743	-83.7082	222.373	113.364	-59.562	224.58	119.334	-85.1605	229.909	120.651	-111.135	248.828	99.8774	-58.6654	252.533	103.812	-88.0024	251.229	88.5159	-120.562	248.436	65.0468	-64.9045	229.032	48.5845	-77.2473	209.617	38.6156	-53.0794	254.727	46.7209	-52.3016	233.24	31.585	-63.9188	214.693	29.3293	-38.0752	244.352	68.8868	-4.6291	235.488	54.2559	19.9273	214.144	80.5307	5.9238	
78	0.65	159.441	58.8187	-10.8515	155.63	53.2123	-47.5993	174.512	50.5165	-80.0569	200.501	42.4598	-83.2448	191.669	105.352	-61.8915	186.627	113.319	-91.7415	188.728	108.318	-118.949	216.399	101.97	-61.7417	221.497	103.146	-95.4312	212.079	83.2586	-123.962	226.559	74.0999	-68.1475	215.694	50.8196	-85.1014	198.288	36.9336	-61.0154	235.37	55.3584	-61.1603	222.411	36.3087	-72.5618	202.267	27.2404	-50.7898	223.811	74.9772	-8.05464	216.265	60.759	19.1302	192.191	80.478	1.68486	
79	0.658333	145.241	50.9538	-11.5517	139.767	44.2432	-47.4977	154.773	38.1966	-71.7503	181.508	34.6777	-80.8763	165.313	97.6509	-70.1296	163.89	96.851	-99.5816	155.786	86.9737	-122.608	191.407	98.2265	-66.7811	192.997	98.7829	-99.5303	182.853	70.9425	-128.289	206.017	78.3363	-66.0777	200.81	61.1203	-94.3555	185.796	35.0598	-77.2608	219.915	56.2324	-63.8144	204.784	40.1023	-78.6928	190.847	19.5002	-56.9471	206.259	72.211	-10.7453	202.499	61.2836	13.7303	173.301	75.1004	0.800924	
80	0.666667	137.428	46.9436	-8.86126	132.989	37.403	-47.6715	148.141	30.2071	-72.9879	174.375	24.0129	-82.2384	157.673	89.7182	-72.5079	148.766	86.64	-100.7	143.372	72.9053	-123.759	182.646	93.018	-70.1115	183.664	94.9907	-102.017	172.506	75.0484	-130.555	197.907	78.6095	-64.6923	195.644	72.7381	-95.6962	182.174	42.0947	-103.236	207.321	53.3118	-63.3227	196.762	31.7492	-80.2852	182.189	13.9162	-58.5052	196.397	69.3566	-13.1343	195.88	57.9809	12.2416	165.183	72.1073	-0.430022	
81	0.675	134.924	43.1692	-9.73381	131.113	30.7039	-45.3418	146.816	23.1432	-71.7635	174.014	19.5978	-72.439	150.03	84.8775	-73.1725	143.557	81.3354	-101.123	138.302	70.0913	-126.523	181.477	90.5881	-72.6182	180.575	93.4247	-103.829	173.008	85.5526	-134.57	196.85	75.9427	-66.5968	194.747	75.7699	-97.6248	192.354	53.6725	-120.219	204.975	46.1092	-64.8471	195.093	23.5989	-77.7503	178.965	7.21977	-58.6819	194.27	65.1282	-12.411	196.382	55.7884	14.1313	166.186	69.9537	-1.977	
82	0.683333	131.83	36.9703	-12.6804	133.29	22.6887	-46.5114	155.252	16.5727	-69.5456	181.505	14.0419	-68.9327	151.841	77.7801	-76.2057	144.843	77.4781	-100.639	142.883	70.9186	-124.251	177.005	83.9271	-71.7006	175.182	91.069	-96.8023	177.693	94.3555	-134.332	195.459	71.2734	-68.4261	196.827	72.932	-95.9675	200.834	66.3354	-119.575	206.358	41.7188	-60.1468	197.686	15.6142	-71.8034	181.361	2.4581	-52.4226	194.065	65.5369	-16.7477	191.084	58.4371	12.1248	160.795	67.1419	-6.01806	
83	0.691667	137.462	31.3688	-12.6136	138.608	13.6085	-48.8728	160.21	6.6614	-68.8037	189.258	7.36285	-66.9895	154.728	70.6303	-76.4877	146.568	70.4791	-105.725	143.693	66.3307	-130.788	181.42	77.4526	-73.241	181.262	83.2206	-99.2568	182.381	90.4153	-130.296	197.009	64.4421	-66.203	204.579	66.715	-90.0619	208.123	67.4712	-119.585	210.308	34.1579	-61.0687	200.131	9.16107	-66.2821	186.017	-1.88606	-46.2211	195.644	64.1146	-15.4341	192.2	55.7037	15.731	160.75	65.5003	-7.20833	
84	0.7	141.171	24.1396	-15.4745	146.654	4.95532	-47.0782	170.21	-5.60218	-68.8488	194.94	-3.18552	-62.1	154.605	58.297	-83.205	155.401	55.2275	-110.496	153.582	50.4773	-135.357	183.454	64.7302	-77.9271	186.95	71.3189	-107.674	192.34	76.7156	-136.249	202.39	56.1866	-72.647	214.751	56.1434	-92.9329	215.985	54.3496	-119.31	218.462	29.2561	-55.4366	213.793	0.208852	-63.0555	193.286	-7.91173	-44.1678	193.034	60.1858	-21.9668	192.051	56.0407	9.40764	163.936	58.7432	-13.6189	
85	0.708333	143.335	16.6293	-17.4734	147.349	-9.31934	-43.6993	172.973	-19.4714	-60.4306	198.856	-19.6626	-57.9217	159.638	39.2079	-85.2376	157.363	33.8787	-113.07	157.446	24.9716	-138.69	185.082	48.0623	-87.7225	191.175	48.0349	-109.844	194.593	48.7641	-144.222	209.699	38.4611	-75.2848	213.184	35.808	-96.5317	224.407	28.7891	-122.315	220.887	13.4872	-57.9268	216.563	-12.4693	-60.0138	193.761	-17.7068	-38.5901	194.547	50.8698	-23.4003	192.149	50.3944	8.07597	164.674	51.4091	-14.4867	
86	0.716667	137.224	12.524	-14.6012	135.904	-18.6987	-34.9481	160.047	-36.6411	-54.2957	187.106	-37.5223	-49.1801	155.139	19.2172	-88.579	152.185	8.91397	-109.028	152.336	-4.84872	-136.452	183.733	23.5654	-87.9098	186.366	16.5643	-114.501	186.851	7.69259	-145.778	204.108	12.9029	-78.534	205.747	3.73745	-100.519	209.621	-10.0318	-123.634	213.449	-6.55292	-54.8511	203.549	-32.7103	-54.8644	185.514	-34.2129	-32.5852	195.291	36.3094	-29.4558	194.193	46.0256	1.20173	163.953	44.6837	-22.6007	
87	0.725	130.449	20.1534	-6.11277	119.954	-12.2726	-27.246	133.156	-39.9545	-41.0659	162.796	-45.4304	-36.5182	144.815	8.04952	-83.2461	135.865	-3.10015	-102.441	126.48	-14.6578	-123.774	168.866	1.57563	-86.8652	164.328	-9.78904	-108.301	164.528	-24.464	-134.322	184.377	-11.4004	-73.8002	184.427	-27.4696	-92.7505	179.983	-43.9052	-111.213	193.692	-30.4054	-48.1891	175.805	-49.5858	-42.5507	163.016	-39.807	-15.6273	193.095	22.1995	-28.0888	193.315	31.7353	-1.96796	163.746	38.8966	-19.4213	
88	0.733333	125.837	36.3558	0.780668	97.9856	9.44811	-14.4948	101.806	-20.237	-24.552	124.884	-36.7677	-21.2025	128.489	10.541	-74.3308	114.214	0.124708	-97.0631	98.9088	-8.60219	-115.812	147.904	-8.87539	-78.1616	137.187	-19.2814	-96.8761	124.072	-33.3231	-122.991	151.333	-22.4216	-65.2754	142.392	-39.6545	-81.5583	132.368	-59.7996	-97.0064	156.304	-37.4984	-37.9068	132.907	-49.2463	-23.5387	131.336	-27.9358	0.500372	176.846	8.49932	-27.989	186.692	21.7549	-2.47834	161.469	38.3198	-19.9207	
89	0.741667	127.302	52.3238	-0.55197	93.4306	40.4134	-7.5795	79.9727	10.2841	-16.8911	92.3533	-11.7276	-11.4821	115.076	27.2485	-68.7453	98.2004	26.1772	-87.6704	82.1444	15.2113	-109.052	123.849	0.795837	-69.2452	105.819	-5.69274	-91.2561	85.1689	-15.5507	-113.272	121.888	-14.9784	-56.6349	106.924	-28.3067	-67.3119	86.326	-37.6427	-81.3205	119.249	-29.4596	-25.7022	97.1835	-24.3615	-11.9981	104.483	-6.40206	11.6256	164.215	3.71152	-20.7367	178.308	11.4676	1.67374	159.885	40.2035	-20.8703	
90	0.75	140.787	68.9661	0.638735	102.095	70.3014	-10.2622	77.4889	47.4257	-17.3848	76.3912	20.3254	-10.0959	116.78	48.8944	-70.4059	99.5862	48.0198	-87.3503	82.4133	50.9843	-106.109	113.022	18.6437	-65.9711	92.3485	19.7565	-87.3413	70.6506	17.0481	-106.786	104.75	2.5459	-49.9659	80.1262	-0.0576521	-64.7164	56.5249	-3.66605	-75.2412	96.6449	-1.73357	-21.1387	77.9396	11.2222	-3.47217	93.5034	25.9432	13.577	148.503	8.31066	-22.1239	169.99	12.7314	5.61139	163.571	41.3604	-20.8079	
91	0.758333	156.668	71.283	-1.57662	123.146	90.4424	-14.3736	96.0429	80.3871	-15.8904	79.6796	57.1682	-12.2057	126.855	58.0965	-70.7434	112.888	68.5395	-93.3561	98.3181	73.7326	-110.899	111.983	35.9179	-67.7757	92.3452	41.359	-90.6848	72.6182	46.1276	-110.303	98.8454	25.2747	-52.1253	74.8287	26.6128	-65.1279	55.9621	33.9392	-76.1221	87.6447	22.5528	-20.8802	77.9884	46.5926	-6.42005	96.8168	53.5579	11.2058	141.057	12.5725	-21.1697	160.376	8.71169	6.45143	168.242	38.729	-17.1072	
92	0.766667	176.404	70.7826	-3.72535	152.497	92.6434	-16.9943	122.077	95.0534	-26.2786	104.471	74.4577	-21.1619	155.748	60.9819	-74.0761	148.102	70.4388	-99.4771	137.112	76.604	-119.07	132.547	41.7607	-72.5542	119.637	51.4717	-96.4906	102.277	55.0081	-116.857	115.572	37.2407	-58.0444	98.4833	41.3043	-71.8222	75.5416	52.0736	-90.7866	98.4053	42.5359	-31.7857	93.7712	64.7869	-21.7471	114.833	69.293	2.52247	147.401	14.6559	-19.338	160.281	7.39069	10.6976	178.188	33.7986	-13.6784	
